<svg xmlns="http://www.w3.org/2000/svg" viewBox="0 0 1756.7 329.77"><defs><style>.cls-1{fill:none;stroke:#000;}</style></defs><title>Asset 2</title><g id="Layer_2" data-name="Layer 2"><g id="Layer_1-2" data-name="Layer 1"><path class="cls-1" d="M365.29,27.4c-5.47.46-11.39,1.37-15.5,3.2-6.84,2.73-13.22,6.84-17.33,15.5-5,11.4-5.47,26.9-5.47,55.17V242.63c0,26.45.46,43.78,5.47,55.63,3.2,8.21,10,12.32,18.7,15.05a78,78,0,0,0,14.13,2.74v9.12H240.35v-9.12c5.47-.46,11.86-1.37,16-2.74,7.75-2.28,14.59-6.84,17.79-15.5,5.47-11.86,6.38-28.73,6.38-55.63V59.78h-3.19L178.79,327H161L60.69,60.24H57v197.9c0,22.8,2.74,33.28,7.76,41,4.56,7.29,10,11.4,16.87,13.68a109.85,109.85,0,0,0,16,3.19v9.12H.5v-9.12a63.7,63.7,0,0,0,15.05-2.74c7.75-2.73,12.77-5.93,17.78-13.68,5.93-8.21,9.12-18.69,9.12-41.49V95.8c0-26-1.37-38.3-5.93-49.7C32,37,25.58,33.33,18.28,30.6c-5-2.28-11.4-2.74-16.87-3.2V18.28H95.8L184.72,259.5h3.19L277.29,18.28h88Z"/><path class="cls-1" d="M493.44,329.27c-29.64,0-52.9-9.57-70.23-26.45-22.8-21.43-32.37-52-32.37-84.81,0-64.75,46.51-112.18,101.68-112.18,61.56,0,86.64,44.24,86.64,79.35a168.36,168.36,0,0,1-1.36,22.34H436v10c0,32.83,6.84,62.47,21.43,78.43,10.49,11.4,25.54,17.33,44.23,17.33,40.13,0,59.28-26,68.86-55.17l10,3.64C567.76,302.37,538.58,329.27,493.44,329.27Zm-56.55-133.6H520.8c12.76,0,16.41-4.11,16.41-22.35,0-22.34-4.1-35.11-12.77-44.23-7.75-7.3-16.87-11.4-31.46-11.4A47.87,47.87,0,0,0,460.6,130C450.12,140,440.09,162.38,436.89,195.67Z"/><path class="cls-1" d="M770.23,326.08c-2.28,0-3.19-.91-3.65-2.74a106.18,106.18,0,0,1-.46-12.76V289.14h-2.73c-9.58,23.26-31.47,40.13-63.84,40.13-46.06,0-91.66-37.85-91.66-111.72,0-76.6,51.53-111.72,99.87-111.72,31,0,45.59,13.68,53.35,27.36h1.82V65.25c0-11.85-.45-32.37-1.82-39.21s-4.56-9.58-9.12-12.32c-5.93-3.19-12.77-4.1-21-5V.5h72c2.28,0,2.73.91,2.73,3.65-.45,14.13-1.36,42-1.36,69.31V270.9c0,8.21,0,17.79,1.36,24.63,1.37,8.21,5,13.68,12.32,16.87,4.56,2.74,11.4,4.1,16,4.56v8.66C830,325.62,772.05,326.08,770.23,326.08ZM762.93,182c0-22.8-5.47-37.4-15-48.34-9.12-9.58-19.15-14.59-35.11-14.59-33.29,0-60.65,29.64-60.65,98.95,0,72.5,26.91,96.67,59.74,96.67,31.92,0,51.07-30.1,51.07-67Z"/><path class="cls-1" d="M924.81,272.73c0,9.12.91,18.69,2.28,24.62,1.82,8.67,7.29,12.31,13.68,15.51,3.19,1.82,9.12,3.19,14.13,3.64v8.67H854.58V316.5c4.57-.45,10.49-1.82,13.69-3.64,7.29-3.2,11.85-8.21,13.67-15.51s1.83-15.05,1.83-24.62V166.94c0-7.3-.46-23.26-1.83-28.73-1.82-5.93-3.64-9.58-8.2-12.31-4.56-3.19-9.58-5-19.16-6.39v-8.2H923a2.88,2.88,0,0,1,3.2,3.19c-.46,10.49-1.37,21.89-1.37,41.49ZM878.75,40.17c0-15,10-26.45,25.54-26.45,16.41,0,26.9,11.86,26.9,26.45s-10.94,26-26.9,26C888.78,66.16,878.75,54.76,878.75,40.17Z"/><path class="cls-1" d="M1049.75,128.63c-16,13.68-26.45,42.41-26.45,86.64,0,44.69,11,69.31,26,84.82,8.67,8.21,22.35,13.68,35.57,13.68,44.23,0,62-29.64,69.77-53.35l10.49,3.64c-10.95,37.85-39.22,65.21-84.82,65.21-26.9,0-47-8.21-63.38-21.89-22.34-17.78-37.39-47.42-37.39-89.83,0-64.75,45.6-111.72,102.14-111.72,39.22,0,56.54,11.86,67,22.8,7.75,7.3,11.4,16.42,11.4,24.17,0,14.14-8.21,20.52-20.06,20.52-14.14,0-20.52-9.57-24.17-25.08-5.47-23.25-13.22-31-34.2-31A52.34,52.34,0,0,0,1049.75,128.63Z"/><path class="cls-1" d="M1336.57,329.27c-10.49,0-17.33-1.82-21.89-5-6.84-4.56-10.49-11.86-11.4-26.91h-3.19c-6.38,14.14-23.71,31.92-55.63,31.92-34.66,0-58.83-18.69-58.83-53.81,0-12.31,4.11-26,14.6-36.48,15.5-14.13,31.92-17.32,55.63-25.07,28.72-8.21,42.4-20.07,44.68-31V148.24c0-23.25-8.2-31.46-27.81-31.46-9.12,0-16.87,2.28-22.8,5.93-6.84,4.56-10,12.76-11.4,25.53-1.37,15.51-8.66,21.43-21.43,21.43-10.95,0-19.61-6.84-19.61-18.69a30.12,30.12,0,0,1,10-22.35c11-12.31,38.76-22.8,64.3-22.8,41.49,0,69.76,13.23,69.76,46.06V274.1c0,21.88,1.37,29.64,5,34.65,2.28,4.11,6.84,5.93,12.77,5.93A32.88,32.88,0,0,0,1374,311l2.74,7.75C1370.77,323.34,1354.81,329.27,1336.57,329.27Zm-68.86-107.16c-14.59,6.39-25.08,11.4-31,18.7-6.39,7.29-10,16.87-10,31.92,0,28.27,14.14,38.76,33.29,38.76,17.78,0,37.85-13.23,40.58-35.11V202.05C1294.16,209.8,1280.48,216.19,1267.71,222.11Z"/><path class="cls-1" d="M1487,119.06a54.28,54.28,0,0,1,36-13.23c9.57,0,18.24,3.2,24.16,8.67,4.11,4.1,7.3,10.49,7.3,20.06,0,11.86-6.38,22.8-20.52,22.8-13.22,0-18.24-7.75-21.89-17.33-3.19-7.29-7.29-10.94-12.76-10.94-13.23,0-34.2,26.45-38.31,59.28-.45,4.56-.91,19.15-.91,31v46.51c0,17.33,1.82,26.45,5,34.2,2.28,6.38,5.47,11.4,10.94,13.22a58.68,58.68,0,0,0,15.05,3.19v8.67H1389V316.5a75,75,0,0,0,14.6-3.19c7.29-3.65,10.94-7.75,13.68-17.33,1.82-7.75,1.82-18.24,1.82-28.72V166.94c0-7.3,0-22.35-1.37-28.27-1.37-5.48-5-10.49-9.12-12.77-5.93-3.65-12.31-5-19.61-6.39v-8.2h68c2.28,0,3.19,1.36,3.19,2.73s-1.37,43.32-1.37,44.69h2.74C1469.26,138.21,1477.47,127.72,1487,119.06Z"/><path class="cls-1" d="M1669,329.27c-29.64,0-52.9-9.57-70.23-26.45-22.8-21.43-32.37-52-32.37-84.81,0-64.75,46.51-112.18,101.68-112.18,61.56,0,86.64,44.24,86.64,79.35a166.6,166.6,0,0,1-1.37,22.34H1611.53v10c0,32.83,6.84,62.47,21.43,78.43,10.49,11.4,25.54,17.33,44.23,17.33,40.13,0,59.28-26,68.86-55.17l10,3.64C1743.31,302.37,1714.13,329.27,1669,329.27Zm-56.55-133.6h83.9c12.77,0,16.42-4.11,16.42-22.35,0-22.34-4.1-35.11-12.77-44.23-7.75-7.3-16.87-11.4-31.46-11.4A47.87,47.87,0,0,0,1636.15,130C1625.67,140,1615.63,162.38,1612.44,195.67Z"/></g></g></svg>